<svg xmlns="http://www.w3.org/2000/svg" xmlns:xlink="http://www.w3.org/1999/xlink">
	<defs>
		<style>
			.img {display: none}
			.img:target {display: inline}
		</style>
	</defs>

	<svg viewBox="0 0 448 512">
		<g id="whatsapp-brands-white" class="img">
			<path fill="#ffffff" d="M380.9 97.1C339 55.1 283.2 32 223.9 32c-122.4 0-222 99.6-222 222 0 39.1 10.2 77.3 29.6 111L0 480l117.7-30.9c32.4 17.7 68.9 27 106.1 27h.1c122.3 0 224.1-99.6 224.1-222 0-59.3-25.2-115-67.1-157zm-157 341.6c-33.2 0-65.7-8.9-94-25.7l-6.7-4-69.8 18.3L72 359.2l-4.4-7c-18.5-29.4-28.2-63.3-28.2-98.2 0-101.7 82.8-184.5 184.6-184.5 49.3 0 95.6 19.2 130.4 54.1 34.8 34.9 56.2 81.2 56.1 130.5 0 101.8-84.9 184.6-186.6 184.6zm101.2-138.2c-5.5-2.8-32.8-16.2-37.9-18-5.1-1.9-8.8-2.8-12.5 2.8-3.7 5.6-14.3 18-17.6 21.8-3.2 3.7-6.5 4.2-12 1.4-32.6-16.3-54-29.1-75.5-66-5.7-9.8 5.7-9.1 16.3-30.3 1.8-3.7.9-6.9-.5-9.7-1.4-2.8-12.5-30.1-17.1-41.2-4.5-10.8-9.1-9.3-12.5-9.5-3.2-.2-6.9-.2-10.6-.2-3.7 0-9.7 1.4-14.8 6.9-5.1 5.6-19.4 19-19.4 46.3 0 27.3 19.9 53.7 22.6 57.4 2.8 3.7 39.1 59.7 94.8 83.8 35.2 15.2 49 16.5 66.6 13.9 10.7-1.6 32.8-13.4 37.4-26.4 4.6-13 4.6-24.1 3.2-26.4-1.3-2.5-5-3.9-10.5-6.6z"></path>
		</g>
	</svg>
	<svg viewBox="0 0 448 512">
		<g id="whatsapp-brands-red" class="img">
			<path fill="#e50914" d="M380.9 97.1C339 55.1 283.2 32 223.9 32c-122.4 0-222 99.6-222 222 0 39.1 10.2 77.3 29.6 111L0 480l117.7-30.9c32.4 17.7 68.9 27 106.1 27h.1c122.3 0 224.1-99.6 224.1-222 0-59.3-25.2-115-67.1-157zm-157 341.6c-33.2 0-65.7-8.9-94-25.7l-6.7-4-69.8 18.3L72 359.2l-4.4-7c-18.5-29.4-28.2-63.3-28.2-98.2 0-101.7 82.8-184.5 184.6-184.5 49.3 0 95.6 19.2 130.4 54.1 34.8 34.9 56.2 81.2 56.1 130.5 0 101.8-84.9 184.6-186.6 184.6zm101.2-138.2c-5.5-2.8-32.8-16.2-37.9-18-5.1-1.9-8.8-2.8-12.5 2.8-3.7 5.6-14.3 18-17.6 21.8-3.2 3.7-6.5 4.2-12 1.4-32.6-16.3-54-29.1-75.5-66-5.7-9.8 5.7-9.1 16.3-30.3 1.8-3.7.9-6.9-.5-9.7-1.4-2.8-12.5-30.1-17.1-41.2-4.5-10.8-9.1-9.3-12.5-9.5-3.2-.2-6.9-.2-10.6-.2-3.7 0-9.7 1.4-14.8 6.9-5.1 5.6-19.4 19-19.4 46.3 0 27.3 19.9 53.7 22.6 57.4 2.8 3.7 39.1 59.7 94.8 83.8 35.2 15.2 49 16.5 66.6 13.9 10.7-1.6 32.8-13.4 37.4-26.4 4.6-13 4.6-24.1 3.2-26.4-1.3-2.5-5-3.9-10.5-6.6z"></path>
		</g>
	</svg>
	<svg viewBox="0 0 448 512">
		<g id="whatsapp-brands" class="img">
			<path fill="#currentColor" d="M380.9 97.1C339 55.1 283.2 32 223.9 32c-122.4 0-222 99.6-222 222 0 39.1 10.2 77.3 29.6 111L0 480l117.7-30.9c32.4 17.7 68.9 27 106.1 27h.1c122.3 0 224.1-99.6 224.1-222 0-59.3-25.2-115-67.1-157zm-157 341.6c-33.2 0-65.7-8.9-94-25.7l-6.7-4-69.8 18.3L72 359.2l-4.4-7c-18.5-29.4-28.2-63.3-28.2-98.2 0-101.7 82.8-184.5 184.6-184.5 49.3 0 95.6 19.2 130.4 54.1 34.8 34.9 56.2 81.2 56.1 130.5 0 101.8-84.9 184.6-186.6 184.6zm101.2-138.2c-5.5-2.8-32.8-16.2-37.9-18-5.1-1.9-8.8-2.8-12.5 2.8-3.7 5.6-14.3 18-17.6 21.8-3.2 3.7-6.5 4.2-12 1.4-32.6-16.3-54-29.1-75.5-66-5.7-9.8 5.7-9.1 16.3-30.3 1.8-3.7.9-6.9-.5-9.7-1.4-2.8-12.5-30.1-17.1-41.2-4.5-10.8-9.1-9.3-12.5-9.5-3.2-.2-6.9-.2-10.6-.2-3.7 0-9.7 1.4-14.8 6.9-5.1 5.6-19.4 19-19.4 46.3 0 27.3 19.9 53.7 22.6 57.4 2.8 3.7 39.1 59.7 94.8 83.8 35.2 15.2 49 16.5 66.6 13.9 10.7-1.6 32.8-13.4 37.4-26.4 4.6-13 4.6-24.1 3.2-26.4-1.3-2.5-5-3.9-10.5-6.6z"></path>
		</g>
	</svg>
	<svg viewBox="0 0 448 512">
		<g id="telegram-plane-brands-white" class="img">
			<path fill="#ffffff" d="M446.7 98.6l-67.6 318.8c-5.1 22.5-18.4 28.1-37.3 17.5l-103-75.9-49.7 47.8c-5.5 5.5-10.1 10.1-20.7 10.1l7.4-104.9 190.9-172.5c8.3-7.4-1.8-11.5-12.9-4.1L117.8 284 16.2 252.2c-22.1-6.9-22.5-22.1 4.6-32.7L418.2 66.4c18.4-6.9 34.5 4.1 28.5 32.2z"></path>
		</g>
	</svg>
	<svg viewBox="0 0 448 512">
		<g id="telegram-plane-brands-red" class="img">
			<path fill="#e50914" d="M446.7 98.6l-67.6 318.8c-5.1 22.5-18.4 28.1-37.3 17.5l-103-75.9-49.7 47.8c-5.5 5.5-10.1 10.1-20.7 10.1l7.4-104.9 190.9-172.5c8.3-7.4-1.8-11.5-12.9-4.1L117.8 284 16.2 252.2c-22.1-6.9-22.5-22.1 4.6-32.7L418.2 66.4c18.4-6.9 34.5 4.1 28.5 32.2z"></path>
		</g>
	</svg>
	<svg viewBox="0 0 448 512">
		<g id="telegram-plane-brands" class="img">
			<path fill="#currentColor" d="M446.7 98.6l-67.6 318.8c-5.1 22.5-18.4 28.1-37.3 17.5l-103-75.9-49.7 47.8c-5.5 5.5-10.1 10.1-20.7 10.1l7.4-104.9 190.9-172.5c8.3-7.4-1.8-11.5-12.9-4.1L117.8 284 16.2 252.2c-22.1-6.9-22.5-22.1 4.6-32.7L418.2 66.4c18.4-6.9 34.5 4.1 28.5 32.2z"></path>
		</g>
	</svg>
	<svg viewBox="0 0 512 512">
		<g id="poker-machine" class="img">
			<path d="m32.058 47h-7.058v-2.868l-.592.177c-.671.682-1.452 1.253-2.31 1.694 2.315 1.031 4.234 2.793 5.454 4.997h4.973c-.334-.94-.525-1.947-.525-3 0-.336.021-.669.058-1z" fill="#ffffff" data-original="#000000" style="" class=""></path>
			<path d="m19 49.333c0-1.286-1.047-2.333-2.333-2.333h-.067c-.244 0-.485.009-.725.027-.5.113-.875.56-.875 1.094 0 .295.12.584.328.793l.978.978-5.492 7.689-1.628-1.162 1.014-1.419h-3.063c-.088.521-.137 1.054-.137 1.6 0 2.427 1.974 4.4 4.4 4.4 1.782 0 3.376-1.062 4.06-2.704l3.361-8.065c.118-.286.179-.587.179-.898z" fill="#ffffff" data-original="#000000" style="" class=""></path>
			<path d="m23.826 55 .995 1.429-1.642 1.143-3.285-4.718-1.811 4.346.455 1.092c.686 1.646 2.28 2.708 4.062 2.708 2.426 0 4.4-1.974 4.4-4.4 0-.545-.048-1.079-.136-1.6z" fill="#ffffff" data-original="#000000" style="" class=""></path>
			<path d="m28.432 43.107-1.432.428v1.465h5.524c.25-.706.591-1.376 1.008-2h-4.825c-.093.033-.179.079-.275.107z" fill="#ffffff" data-original="#000000" style="" class=""></path>
			<path d="m7 38v-9h1c1.896 0 3.54-1.284 4-3.122l.411-1.63 1.214.971c3.047 2.438 6.875 3.781 10.777 3.781h2.598v9c0 1.314-.29 2.56-.799 3.687l1.659-.495c1.849-.552 3.14-2.284 3.14-4.213v-.103c0-.473-.076-.94-.226-1.392l-3.273-9.819c-1.329-3.986-5.045-6.665-9.247-6.665-1.931 0-3.8.566-5.407 1.637l-.544.363h-.303c-1.978 0-3.773 1.244-4.468 3.097l-4.252 11.339c-.186.494-.28 1.013-.28 1.543 0 1.93 1.291 3.661 3.139 4.213l1.66.496c-.509-1.128-.799-2.374-.799-3.688z" fill="#ffffff" data-original="#000000" style="" class=""></path>
			<path d="m32 23h-3.509c.359.64.668 1.316.907 2.032l2.602 7.805z" fill="#ffffff" data-original="#000000" style="" class=""></path>
			<path d="m36.115 43c-1.344 1.315-2.115 3.113-2.115 5 0 3.859 3.14 7 7 7s7-3.141 7-7c0-1.888-.772-3.686-2.116-5zm4.885 9c-2.209 0-4-1.791-4-4s1.791-4 4-4 4 1.791 4 4-1.791 4-4 4z" fill="#ffffff" data-original="#000000" style="" class=""></path>
			<path d="m7.702 53h3.927l2.075-2.905c-.451-.554-.704-1.257-.704-1.974 0-.146.01-.291.03-.433-2.417.972-4.349 2.899-5.328 5.312z" fill="#ffffff" data-original="#000000" style="" class=""></path>
			<path d="m22.434 53h3.863c-1.027-2.528-3.099-4.524-5.679-5.445.245.543.382 1.144.382 1.778 0 .444-.087.874-.219 1.293z" fill="#ffffff" data-original="#000000" style="" class=""></path>
			<path d="m16.121 45h1.279.6c3.86 0 7-3.141 7-7v-7h-.598c-3.894 0-7.721-1.198-10.919-3.396-.87 1.756-2.537 2.995-4.484 3.315l.001 7.081c0 3.859 3.141 7 7 7zm6.323-13.832 1.109 1.664-1.75 1.168 1.752 1.168-1.109 1.664-4.249-2.832zm-11.999 4 1.752-1.168-1.751-1.168 1.109-1.664 4.248 2.832-4.248 2.832zm4.555 7.068-.105.211-1.789-.895.105-.211c.722-1.444 2.174-2.341 3.789-2.341s3.067.897 3.789 2.342l.105.211-1.789.895-.105-.212c-.381-.762-1.147-1.236-2-1.236s-1.619.474-2 1.236z" fill="#ffffff" data-original="#000000" style="" class=""></path>
			<path d="m55 45v-2h-6.532c.418.624.758 1.294 1.008 2z" fill="#ffffff" data-original="#000000" style="" class=""></path>
			<path d="m46 7h-14c-5.729 0-10.448 4.401-10.955 10h35.91c-.507-5.599-5.226-10-10.955-10zm-15 7c-1.105 0-2-.895-2-2s.895-2 2-2 2 .895 2 2-.895 2-2 2zm8 0c-1.105 0-2-.895-2-2s.895-2 2-2 2 .895 2 2-.895 2-2 2zm8 0c-1.105 0-2-.895-2-2s.895-2 2-2 2 .895 2 2-.895 2-2 2z" fill="#ffffff" data-original="#000000" style="" class=""></path>
			<path d="m46 23v14h10v-14zm5.949 12.316-1.897-.633 2.561-7.683h-3.226l.562 1.684-1.897.633-1.439-4.317h8.774z" fill="#ffffff" data-original="#000000" style="" class=""></path>
			<path d="m34 23v14h10v-14zm5.949 12.316-1.897-.633 2.561-7.683h-3.226l.562 1.684-1.897.633-1.439-4.317h8.774z" fill="#ffffff" data-original="#000000" style="" class=""></path>
			<path d="m46 3h-14c-7.957 0-14.468 6.232-14.953 14.069.4-.041.801-.069 1.207-.069.267 0 .532.014.795.032.499-6.716 6.109-12.032 12.951-12.032h14c7.168 0 13 5.832 13 13v1h-34.198c.841.565 1.612 1.233 2.284 2h30.914v18h-25.334c-.247.733-.637 1.404-1.121 2h25.455v6h-7.058c.037.331.058.664.058 1 0 1.053-.191 2.06-.525 3h11.525v-33c0-8.271-6.729-15-15-15z" fill="#ffffff" data-original="#000000" style="" class=""></path>
		</g>
	</svg>