<?xml version="1.0"?>
<svg xmlns="http://www.w3.org/2000/svg" xmlns:xlink="http://www.w3.org/1999/xlink" xmlns:svgjs="http://svgjs.com/svgjs" version="1.1" width="512" height="512" x="0" y="0" viewBox="0 0 64 64" style="enable-background:new 0 0 512 512" xml:space="preserve" class=""><g><g xmlns="http://www.w3.org/2000/svg"><path d="m44.949 45h-2c-.207 2.283-1.111 4.366-2.501 6.034l1.414 1.414c1.746-2.037 2.87-4.615 3.087-7.448z" fill="#ffffff" data-original="#000000" style="" class=""/><path d="m26.304 34.61-1.096-1.687c-.59.362-1.141.77-1.658 1.212l1.426 1.426c.416-.348.859-.665 1.328-.951z" fill="#ffffff" data-original="#000000" style="" class=""/><path d="m23.553 53.861c2.036 1.747 4.615 2.871 7.447 3.088v-2c-2.283-.207-4.366-1.111-6.034-2.501z" fill="#ffffff" data-original="#000000" style="" class=""/><path d="m16 32c0 1.103.897 2 2 2s2-.897 2-2h2c0 .327-.05.64-.125.945.687-.627 1.435-1.199 2.243-1.698l-3.411-5.247h-.707c0-1.103-.897-2-2-2s-2 .897-2 2h2v2h-2v2h2v2z" fill="#ffffff" data-original="#000000" style="" class=""/><path d="m21.052 43c.208-2.233 1.099-4.332 2.508-6.026l-1.426-1.426c-1.778 2.068-2.88 4.664-3.093 7.452z" fill="#ffffff" data-original="#000000" style="" class=""/><path d="m23.552 51.034c-1.391-1.667-2.294-3.751-2.501-6.034h-2c.217 2.833 1.341 5.411 3.088 7.447z" fill="#ffffff" data-original="#000000" style="" class=""/><path d="m33 56.949c2.833-.217 5.411-1.341 7.447-3.088l-1.414-1.414c-1.667 1.391-3.751 2.294-6.034 2.501v2.001z" fill="#ffffff" data-original="#000000" style="" class=""/><path d="m55.448 39.034 1.414 1.414c1.747-2.036 2.871-4.615 3.088-7.447h-2c-.208 2.282-1.111 4.365-2.502 6.033z" fill="#ffffff" data-original="#000000" style="" class=""/><path d="m54.034 23.552 1.414-1.414c-2.275-1.951-5.223-3.138-8.448-3.138-.112 0-.222.011-.334.014-.149.696-.349 1.38-.596 2.047.309-.026.618-.061.93-.061 2.673 0 5.125.961 7.034 2.552z" fill="#ffffff" data-original="#000000" style="" class=""/><path d="m31.293 38.616c.313.48 1.101.48 1.413 0l10.212-15.71c1.362-2.094 2.082-4.523 2.082-7.022 0-7.105-5.78-12.884-12.884-12.884h-.231c-7.105 0-12.885 5.779-12.885 12.884 0 2.499.72 4.928 2.082 7.022zm-2.293-7.616h-2v-2h2zm4 0h-2v-2h2zm4 0h-2v-2h2zm-5-25c5.523 0 10 4.477 10 10s-4.477 10-10 10-10-4.477-10-10 4.477-10 10-10z" fill="#ffffff" data-original="#000000" style="" class=""/><path d="m59.949 31c-.217-2.833-1.341-5.411-3.088-7.447l-1.414 1.414c1.391 1.667 2.294 3.751 2.501 6.034h2.001z" fill="#ffffff" data-original="#000000" style="" class=""/><path d="m36.598 36.299-2.046 3.147c.865.527 1.448 1.47 1.448 2.554h-2c0-.552-.449-1-1-1h-2c-.551 0-1 .448-1 1s.449 1 1 1h2c1.654 0 3 1.346 3 3s-1.346 3-3 3v2h-2v-2c-1.654 0-3-1.346-3-3h2c0 .552.449 1 1 1h2c.551 0 1-.448 1-1s-.449-1-1-1h-2c-1.654 0-3-1.346-3-3 0-1.084.583-2.027 1.447-2.554l-2.046-3.147c-2.691 1.614-4.401 4.539-4.401 7.701 0 4.963 4.038 9 9 9s9-4.037 9-9c0-3.162-1.71-6.087-4.402-7.701z" fill="#ffffff" data-original="#000000" style="" class=""/><path d="m8 29c0 4.963 4.038 9 9 9 .435 0 .869-.042 1.299-.104.342-.767.75-1.5 1.215-2.198-.468.192-.978.302-1.514.302-2.206 0-4-1.794-4-4h-2v-2h2v-2h-2v-2h2c0-2.206 1.794-4 4-4 .114 0 .221.024.332.034-.294-.647-.541-1.312-.738-1.992-.199-.013-.396-.042-.594-.042-4.962 0-9 4.037-9 9z" fill="#ffffff" data-original="#000000" style="" class=""/><path d="m56.15 43.859c-2.536 1.961-5.704 3.141-9.15 3.141-.101 0-.2-.01-.3-.012-.139.685-.339 1.346-.568 1.994.291.005.572.018.868.018 9.237 0 14-2.103 14-3 0-.227-.885-1.294-4.85-2.141z" fill="#ffffff" data-original="#000000" style="" class=""/><path d="m41.15 55.859c-2.536 1.961-5.704 3.141-9.15 3.141s-6.614-1.18-9.15-3.141c-3.965.847-4.85 1.914-4.85 2.141 0 .897 4.763 3 14 3s14-2.103 14-3c0-.227-.885-1.294-4.85-2.141z" fill="#ffffff" data-original="#000000" style="" class=""/><path d="m47 45c3.225 0 6.173-1.187 8.447-3.139l-1.414-1.414c-1.908 1.592-4.36 2.553-7.033 2.553-.011 0-.023-.002-.034-.002.021.332.034.666.034 1.002 0 .337-.029.667-.051.998.017 0 .034.002.051.002z" fill="#ffffff" data-original="#000000" style="" class=""/><path d="m44 25h8v2h-4v4h2v2h-2v2c0 .721-.199 1.406-.544 2h4.544v2h-5.856c.228.644.411 1.307.549 1.983.103.003.203.017.307.017 4.962 0 9-4.037 9-9s-4.038-9-9-9c-.658 0-1.308.088-1.944.228-.147.259-.297.517-.461.768l-4.713 7.251c2.205 1.362 3.975 3.241 5.202 5.43.555-.362.916-.986.916-1.677v-2h-2v-2h2v-4h-2z" fill="#ffffff" data-original="#000000" style="" class=""/><path d="m9.966 37.448-1.414 1.414c2.275 1.951 5.223 3.138 8.448 3.138.046 0 .09-.004.136-.005.092-.687.23-1.363.414-2.023-.184.009-.367.028-.55.028-2.673 0-5.125-.961-7.034-2.552z" fill="#ffffff" data-original="#000000" style="" class=""/><path d="m37.696 34.61c.469.285.912.603 1.329.951l1.426-1.426c-.517-.442-1.068-.85-1.658-1.212z" fill="#ffffff" data-original="#000000" style="" class=""/><path d="m17 18c.051 0 .102.01.153.011-.095-.663-.143-1.335-.148-2.011-.001 0-.003 0-.004 0-3.225 0-6.173 1.187-8.447 3.139l1.414 1.414c1.907-1.592 4.359-2.553 7.032-2.553z" fill="#ffffff" data-original="#000000" style="" class=""/><path d="m41.866 35.548-1.426 1.426c1.409 1.694 2.301 3.793 2.508 6.026h2.011c-.213-2.789-1.315-5.384-3.093-7.452z" fill="#ffffff" data-original="#000000" style="" class=""/><path d="m8.552 36.034c-1.391-1.668-2.294-3.751-2.501-6.034h-2c.217 2.833 1.341 5.411 3.088 7.447z" fill="#ffffff" data-original="#000000" style="" class=""/><path d="m8.552 21.966-1.414-1.414c-1.746 2.037-2.87 4.615-3.087 7.448h2c.207-2.283 1.11-4.366 2.501-6.034z" fill="#ffffff" data-original="#000000" style="" class=""/><path d="m7.85 40.859c-3.965.847-4.85 1.914-4.85 2.141 0 .897 4.763 3 14 3 .05 0 .099-.002.149-.002-.088-.655-.149-1.319-.149-1.998-3.446 0-6.614-1.18-9.15-3.141z" fill="#ffffff" data-original="#000000" style="" class=""/><path d="m31 23h2v-2c1.654 0 3-1.346 3-3 0-.768-.29-1.469-.766-2 .476-.531.766-1.232.766-2 0-1.654-1.346-3-3-3v-2h-2v2h-3v10h3zm-1-10h3c.551 0 1 .448 1 1s-.449 1-1 1h-3zm0 6v-2h3c.551 0 1 .448 1 1s-.449 1-1 1z" fill="#ffffff" data-original="#000000" style="" class=""/></g></g></svg>
