<?xml version="1.0"?>
<svg xmlns="http://www.w3.org/2000/svg" xmlns:xlink="http://www.w3.org/1999/xlink" xmlns:svgjs="http://svgjs.com/svgjs" version="1.1" width="512" height="512" x="0" y="0" viewBox="0 0 64 64" style="enable-background:new 0 0 512 512" xml:space="preserve" class=""><g><g xmlns="http://www.w3.org/2000/svg"><path d="m25 35.52c-1.159.957-2.105 2.143-2.789 3.48h2.789z" fill="#ffffff" data-original="#000000" style=""/><path d="m29.812 41c-.552-.725-1.04-1.495-1.461-2.307-.442.113-.892.198-1.345.249l-.006 2.058z" fill="#ffffff" data-original="#000000" style=""/><path d="m27 33.068v3.863c.789-.107 1.559-.345 2.275-.694-.173-.378-.275-.794-.275-1.237 0-.442.102-.859.275-1.238-.716-.349-1.486-.587-2.275-.694z" fill="#ffffff" data-original="#000000" style=""/><path d="m39 35.52v3.48h2.789c-.684-1.337-1.63-2.523-2.789-3.48z" fill="#ffffff" data-original="#000000" style=""/><path d="m19 47h6v-6h-6zm2-4h2v2h-2z" fill="#ffffff" data-original="#000000" style=""/><path d="m30.239 37.999c.491.907 1.081 1.751 1.761 2.528.681-.777 1.27-1.621 1.761-2.528l-.535-.267c-.375.169-.788.268-1.226.268s-.851-.099-1.227-.269z" fill="#ffffff" data-original="#000000" style=""/><path d="m37 41v-2.057c-.455-.051-.907-.136-1.351-.25-.421.813-.909 1.582-1.46 2.307z" fill="#ffffff" data-original="#000000" style=""/><path d="m37 33.068c-.789.107-1.559.345-2.275.694.173.379.275.796.275 1.238s-.102.859-.275 1.238c.715.349 1.486.587 2.275.694z" fill="#ffffff" data-original="#000000" style=""/><path d="m45 41h-6v6h6zm-2 4h-2v-2h2z" fill="#ffffff" data-original="#000000" style=""/><path d="m42 24v-10.026c-.838.635-1.87 1.026-3 1.026h-5.675c-2.223 0-4.306-.753-5.977-2.046-1.541 1.195-3.396 1.9-5.347 2.025v9.021c0 3.86 3.14 7 7 7h6c3.859 0 6.999-3.14 6.999-7zm-15-5c-.551 0-1 .449-1 1h-2c0-1.654 1.346-3 3-3s3 1.346 3 3h-2c0-.551-.449-1-1-1zm5 9c-2.209 0-4-1.791-4-4h8c0 2.209-1.791 4-4 4zm5-9c-.551 0-1 .449-1 1h-2c0-1.654 1.346-3 3-3s3 1.346 3 3h-2c0-.551-.449-1-1-1z" fill="#ffffff" data-original="#000000" style=""/><circle cx="32" cy="35" r="1" fill="#ffffff" data-original="#000000" style=""/><path d="m18.412 15.743c.485-.296 1.014-.525 1.588-.642v-2.101h1.365c1.632 0 3.197-.514 4.508-1.45-.791-.933-1.418-2.022-1.822-3.234l1.897-.633c1.06 3.18 4.024 5.316 7.376 5.316h5.676c1.654 0 3-1.346 3-3h2v5.101c.294.06.575.153.849.263.742-1.26 1.151-2.68 1.151-4.152 0-4.527-3.684-8.211-8.211-8.211h-10.317c-2.377 0-4.515 1.321-5.578 3.447l-.105.211-1.294.971c-1.562 1.172-2.495 3.037-2.495 4.989v.482c0 .525.058 1.051.171 1.562z" fill="#ffffff" data-original="#000000" style=""/><path d="m51 39.045v.955c0 1.654-1.346 3-3 3h-1v6h-10v-6h-10v6h-10v-6h-1c-1.654 0-3-1.346-3-3v-.955c-5.599.507-10 5.226-10 10.955 0 6.065 4.935 11 11 11h36c6.065 0 11-4.935 11-11 0-5.729-4.401-10.448-10-10.955zm-37 18.955h-6v-3h6zm0-5h-6v-2h6zm0-4h-6v-3h6zm14 9h-8v-4h8zm16 0h-8v-4h8zm12 0h-6v-3h6zm0-5h-6v-2h6zm0-4h-6v-3h6z" fill="#ffffff" data-original="#000000" style=""/><path d="m20 22.816v-5.631c-1.161.414-2 1.514-2 2.816s.839 2.401 2 2.815z" fill="#ffffff" data-original="#000000" style=""/><path d="m46 20c0-1.302-.839-2.402-2-2.816v5.631c1.161-.413 2-1.513 2-2.815z" fill="#ffffff" data-original="#000000" style=""/></g></g></svg>
