<?xml version="1.0"?>
<svg xmlns="http://www.w3.org/2000/svg" xmlns:xlink="http://www.w3.org/1999/xlink" xmlns:svgjs="http://svgjs.com/svgjs" version="1.1" width="512" height="512" x="0" y="0" viewBox="0 0 64 64" style="enable-background:new 0 0 512 512" xml:space="preserve" class=""><g><g xmlns="http://www.w3.org/2000/svg"><path d="m19 21v19.549c.564-.98 1.237-1.887 2-2.712v-16.837z" fill="#ffffff" data-original="#000000" style=""/><path d="m23.552 40.966-1.414-1.414c-1.747 2.036-2.871 4.615-3.088 7.447h2c.208-2.282 1.111-4.365 2.502-6.033z" fill="#ffffff" data-original="#000000" style=""/><path d="m40.447 38.139c-2.036-1.747-4.615-2.871-7.447-3.088v2c2.283.207 4.366 1.111 6.034 2.501z" fill="#ffffff" data-original="#000000" style=""/><path d="m41 25h-18v11.028c.632-.477 1.296-.912 2-1.285v-2.743c0-2.757 2.243-5 5-5h4c2.757 0 5 2.243 5 5v2.744c.704.373 1.368.808 2 1.285z" fill="#ffffff" data-original="#000000" style=""/><path d="m32 8.262-9.743 10.738h19.486zm0 7.738c-1.105 0-2-.895-2-2s.895-2 2-2 2 .895 2 2-.895 2-2 2z" fill="#ffffff" data-original="#000000" style=""/><path d="m31 21h2v2h-2z" fill="#ffffff" data-original="#000000" style=""/><path d="m39 21h2v2h-2z" fill="#ffffff" data-original="#000000" style=""/><path d="m35 21h2v2h-2z" fill="#ffffff" data-original="#000000" style=""/><path d="m47 21v4h4v-8h-3.431l1.431 1.622v2.378z" fill="#ffffff" data-original="#000000" style=""/><path d="m53 17h2v8h-2z" fill="#ffffff" data-original="#000000" style=""/><path d="m46.125 53h12.875v-2h-12.302c-.14.687-.342 1.35-.573 2z" fill="#ffffff" data-original="#000000" style=""/><path d="m47 49h10v-22h-10zm3-19h4v6h-4zm0 10h4v6h-4z" fill="#ffffff" data-original="#000000" style=""/><path d="m27 21h2v2h-2z" fill="#ffffff" data-original="#000000" style=""/><path d="m37 33.875v-1.875c0-1.654-1.346-3-3-3h-4c-1.654 0-3 1.346-3 3v1.875c1.567-.556 3.245-.875 5-.875s3.433.319 5 .875z" fill="#ffffff" data-original="#000000" style=""/><path d="m24.966 39.552c1.667-1.391 3.751-2.294 6.034-2.501v-2c-2.833.217-5.411 1.341-7.447 3.088z" fill="#ffffff" data-original="#000000" style=""/><path d="m57 15v-2h-12.961l1.765 2z" fill="#ffffff" data-original="#000000" style=""/><path d="m19.557 19 12.443-13.714 12.443 13.714h2.223l-13.755-15.588c-.461-.523-1.362-.522-1.821-.001l-13.756 15.589z" fill="#ffffff" data-original="#000000" style=""/><path d="m16.431 17h-3.431v8h4v-4h-2v-2.378z" fill="#ffffff" data-original="#000000" style=""/><path d="m23.553 57.861c2.036 1.747 4.615 2.871 7.447 3.088v-2c-2.283-.207-4.366-1.111-6.034-2.501z" fill="#ffffff" data-original="#000000" style=""/><path d="m19.051 49c.217 2.833 1.341 5.411 3.088 7.447l1.414-1.414c-1.391-1.667-2.294-3.751-2.501-6.034h-2.001z" fill="#ffffff" data-original="#000000" style=""/><path d="m3 55v2h17.028c-.477-.632-.912-1.296-1.285-2z" fill="#ffffff" data-original="#000000" style=""/><path d="m41 48c0-4.962-4.037-9-9-9s-9 4.038-9 9 4.037 9 9 9 9-4.038 9-9zm-10-1h2c1.654 0 3 1.346 3 3s-1.346 3-3 3v2h-2v-2c-1.654 0-3-1.346-3-3h2c0 .551.448 1 1 1h2c.552 0 1-.449 1-1s-.448-1-1-1h-2c-1.654 0-3-1.346-3-3s1.346-3 3-3v-2h2v2c1.654 0 3 1.346 3 3h-2c0-.551-.448-1-1-1h-2c-.552 0-1 .449-1 1s.448 1 1 1z" fill="#ffffff" data-original="#000000" style=""/><path d="m33 58.949v2c2.833-.217 5.411-1.341 7.447-3.088l-1.414-1.414c-1.667 1.392-3.75 2.295-6.033 2.502z" fill="#ffffff" data-original="#000000" style=""/><path d="m45.256 55c-.373.704-.808 1.368-1.285 2h17.029v-2z" fill="#ffffff" data-original="#000000" style=""/><path d="m17.302 51h-12.302v2h12.875c-.231-.65-.433-1.313-.573-2z" fill="#ffffff" data-original="#000000" style=""/><path d="m42.949 49c-.207 2.283-1.111 4.366-2.501 6.034l1.414 1.414c1.747-2.036 2.871-4.615 3.088-7.447h-2.001z" fill="#ffffff" data-original="#000000" style=""/><path d="m44.949 47c-.217-2.833-1.341-5.411-3.088-7.447l-1.414 1.414c1.391 1.667 2.294 3.751 2.501 6.034h2.001z" fill="#ffffff" data-original="#000000" style=""/><path d="m9 17h2v8h-2z" fill="#ffffff" data-original="#000000" style=""/><path d="m19.961 13h-12.961v2h11.196z" fill="#ffffff" data-original="#000000" style=""/><path d="m45 21h-2v16.836c.763.825 1.436 1.732 2 2.712z" fill="#ffffff" data-original="#000000" style=""/><path d="m23 21h2v2h-2z" fill="#ffffff" data-original="#000000" style=""/><path d="m17 27h-10v22h10zm-3 19h-4v-6h4zm0-10h-4v-6h4z" fill="#ffffff" data-original="#000000" style=""/></g></g></svg>
