<?xml version="1.0"?>
<svg xmlns="http://www.w3.org/2000/svg" xmlns:xlink="http://www.w3.org/1999/xlink" xmlns:svgjs="http://svgjs.com/svgjs" version="1.1" width="512" height="512" x="0" y="0" viewBox="0 0 64 64" style="enable-background:new 0 0 512 512" xml:space="preserve" class=""><g><g xmlns="http://www.w3.org/2000/svg"><path d="m55.58 61-4.004-7.006c-.612.281-1.254.504-1.92.67l3.621 6.336h-12.554l3.621-6.336c-.666-.166-1.308-.389-1.92-.67l-4.004 7.006h-14.42v-2l-7-.001c-1.958 0-3.728-.81-5-2.11v4.111h-11v2h62v-2z" fill="#ffffff" data-original="#000000" style="" class=""/><path d="m34 43c-1.654 0-3 1.346-3 3v3.276c.614.272 1.129.744 1.431 1.35l.223.444c.119.027.233.069.346.109v-5.179c0-.552.449-1 1-1h2.05c-.03-.33-.05-.662-.05-1s.021-.67.05-1z" fill="#ffffff" data-original="#000000" style="" class=""/><circle cx="47" cy="44" r="1" fill="#ffffff" data-original="#000000" style="" class=""/><path d="m47 35c-1.281 0-2.499.273-3.603.758l3.058 5.297c.177-.033.358-.055.545-.055s.368.022.545.055l3.058-5.297c-1.104-.485-2.322-.758-3.603-.758zm.233 3.972c-.537.129-1.077-.202-1.206-.739s.202-1.077.739-1.206 1.077.202 1.206.739c.129.538-.202 1.078-.739 1.206z" fill="#ffffff" data-original="#000000" style="" class=""/><path d="m38.059 43h6.125c.124-.347.309-.661.543-.936l-3.059-5.298c-1.966 1.453-3.325 3.681-3.609 6.234zm4.029-2.959c.53.157.831.713.674 1.243-.157.529-.713.831-1.243.674-.529-.157-.831-.714-.674-1.243s.714-.831 1.243-.674z" fill="#ffffff" data-original="#000000" style="" class=""/><path d="m41.668 51.234 3.059-5.298c-.235-.275-.419-.589-.543-.936h-6.125c.284 2.553 1.643 4.781 3.609 6.234zm.861-4.922c.38.401.363 1.034-.037 1.414-.401.38-1.034.363-1.414-.037s-.363-1.034.037-1.414c.401-.381 1.034-.364 1.414.037z" fill="#ffffff" data-original="#000000" style="" class=""/><path d="m50.603 52.242-3.058-5.297c-.177.033-.358.055-.545.055s-.368-.022-.545-.055l-3.058 5.297c1.104.485 2.322.758 3.603.758s2.499-.273 3.603-.758zm-4.575-2.009c-.129-.537.202-1.077.739-1.206s1.077.202 1.206.739-.202 1.077-.739 1.206-1.078-.202-1.206-.739z" fill="#ffffff" data-original="#000000" style="" class=""/><path d="m55.941 45h-6.125c-.124.347-.309.661-.543.936l3.059 5.298c1.966-1.453 3.325-3.681 3.609-6.234zm-4.029 2.959c-.53-.157-.831-.714-.674-1.243.157-.53.713-.831 1.243-.674.529.157.831.713.674 1.243-.157.529-.714.831-1.243.674z" fill="#ffffff" data-original="#000000" style="" class=""/><path d="m23.914 49c-.358-2.165-1.853-4.033-3.947-4.819l-.367-.138c.26.611.4 1.272.4 1.956v3.001z" fill="#ffffff" data-original="#000000" style="" class=""/><path d="m52.332 36.766-3.059 5.298c.235.275.42.589.543.936h6.125c-.284-2.553-1.643-4.781-3.609-6.234zm-.861 4.922c-.38-.401-.363-1.034.037-1.414.401-.38 1.034-.363 1.414.037.38.401.363 1.034-.037 1.414s-1.034.364-1.414-.037z" fill="#ffffff" data-original="#000000" style="" class=""/><path d="m31.382 53-.741-1.481c-.271-.545-1.07-.673-1.501-.244l-1.14 1.14v2.585h4c.551 0 1-.448 1-1s-.449-1-1-1z" fill="#ffffff" data-original="#000000" style="" class=""/><path d="m25 27c-3.028 0-5.937-1.271-8-3.452-2.063 2.181-4.972 3.452-8 3.452v7c0 3.859 3.141 7 7 7h1.18.82c3.86 0 7-3.141 7-7zm-13 4h-2c0-1.654 1.346-3 3-3s3 1.346 3 3h-2c0-.552-.449-1-1-1s-1 .448-1 1zm5 7c-2.209 0-4-1.791-4-4h8c0 2.209-1.791 4-4 4zm5-7c0-.552-.449-1-1-1s-1 .448-1 1h-2c0-1.654 1.346-3 3-3s3 1.346 3 3z" fill="#ffffff" data-original="#000000" style="" class=""/><path d="m6.139 37.191 1.66.496c-.508-1.127-.798-2.372-.799-3.687v-9h2c2.817 0 5.509-1.346 7.2-3.601l.8-1.065.8 1.065c1.691 2.255 4.383 3.601 7.2 3.601h2v9c0 1.314-.29 2.56-.798 3.687l1.658-.495c1.849-.552 3.14-2.284 3.14-4.213v-.103c0-.473-.076-.94-.226-1.392l-3.273-9.819c-1.329-3.986-5.045-6.665-9.247-6.665-1.931 0-3.8.566-5.407 1.637l-.544.363h-.303c-1.978 0-3.773 1.244-4.468 3.097l-4.252 11.339c-.186.494-.28 1.013-.28 1.543 0 1.929 1.291 3.661 3.139 4.212z" fill="#ffffff" data-original="#000000" style="" class=""/><path d="m17 56.999 8 .001c.551 0 1-.448 1-1v-4c0-.552-.449-1-1-1h-5.466l-1.702 2.555-1.664-1.109 1.831-2.748v-3.698c0-.802-.312-1.555-.878-2.121-.564-.564-1.314-.875-2.111-.878h-.01v-.001h-.001c-.801 0-1.554.312-2.12.878-.567.565-.879 1.318-.879 2.12v5.002.999c0 2.757 2.243 5 5 5z" fill="#ffffff" data-original="#000000" style="" class=""/><path d="m51 15h6v6h-6z" fill="#ffffff" data-original="#000000" style="" class=""/><path d="m43 23h6v6h-6z" fill="#ffffff" data-original="#000000" style="" class=""/><path d="m43 7h6v6h-6z" fill="#ffffff" data-original="#000000" style="" class=""/><path d="m33 32.876v.103c0 .007-.002.013-.002.02l27.002.001c.551 0 1-.448 1-1v-28c0-.552-.449-1-1-1h-28c-.551 0-1 .448-1 1v21.837l1.672 5.016c.218.655.328 1.335.328 2.023zm0-27.876h26v26h-26z" fill="#ffffff" data-original="#000000" style="" class=""/><path d="m43 21h6v-6h-6zm3-5c1.105 0 2 .895 2 2s-.895 2-2 2-2-.895-2-2 .895-2 2-2z" fill="#ffffff" data-original="#000000" style="" class=""/><path d="m35 23h6v6h-6z" fill="#ffffff" data-original="#000000" style="" class=""/><path d="m51 7h6v6h-6z" fill="#ffffff" data-original="#000000" style="" class=""/><path d="m35 13h6v-6h-6zm3-5c1.105 0 2 .895 2 2s-.895 2-2 2-2-.895-2-2 .895-2 2-2z" fill="#ffffff" data-original="#000000" style="" class=""/><path d="m35 15h6v6h-6z" fill="#ffffff" data-original="#000000" style="" class=""/><path d="m51 29h6v-6h-6zm3-5c1.105 0 2 .895 2 2s-.895 2-2 2-2-.895-2-2 .895-2 2-2z" fill="#ffffff" data-original="#000000" style="" class=""/></g></g></svg>
