<?xml version="1.0"?>
<svg xmlns="http://www.w3.org/2000/svg" xmlns:xlink="http://www.w3.org/1999/xlink" xmlns:svgjs="http://svgjs.com/svgjs" version="1.1" width="512" height="512" x="0" y="0" viewBox="0 0 64 64" style="enable-background:new 0 0 512 512" xml:space="preserve" class=""><g><g xmlns="http://www.w3.org/2000/svg"><path d="m41.794 41c-1.022-1.998-2.62-3.608-4.545-4.656-.611 1.733-1.581 3.319-2.851 4.656z" fill="#ffffff" data-original="#000000" style="" class=""/><path d="m22.206 41h7.396c-1.27-1.336-2.24-2.922-2.851-4.656-1.925 1.048-3.523 2.658-4.545 4.656z" fill="#ffffff" data-original="#000000" style="" class=""/><path d="m34 33c4.963 0 9-4.038 9-9v-7.279l-.441-.147c-1.419-.474-2.657-1.419-3.487-2.664l-.607-.91h-12.785c-.851 1.859-2.49 3.233-4.504 3.737l-.176.044v7.219c0 4.962 4.037 9 9 9zm4-16c1.105 0 2 .895 2 2s-.895 2-2 2-2-.895-2-2 .895-2 2-2zm-12 4c-1.105 0-2-.895-2-2s.895-2 2-2 2 .895 2 2-.895 2-2 2zm2 5h8c0 2.209-1.791 4-4 4s-4-1.791-4-4z" fill="#ffffff" data-original="#000000" style="" class=""/><path d="m23.113 36.522c.94-.879 2.004-1.617 3.159-2.186-4.233-1.532-7.272-5.58-7.272-10.336v-8.781l1.69-.422c1.587-.397 2.844-1.561 3.361-3.113l.228-.684h15.256l1.2 1.801c.584.876 1.457 1.542 2.456 1.875l1.809.603v8.721c0 4.756-3.039 8.804-7.273 10.336 1.156.568 2.22 1.306 3.159 2.186 3.625-1.227 6.114-4.651 6.114-8.522v-10c0-8.271-6.729-15-15-15s-15 6.729-15 15v10c0 3.871 2.489 7.295 6.113 8.522z" fill="#ffffff" data-original="#000000" style="" class=""/><path d="m35.393 35.539c-1.077-.351-2.219-.539-3.393-.539s-2.316.188-3.393.539c.17.503.373.99.612 1.461h5.563c.238-.471.441-.959.611-1.461z" fill="#ffffff" data-original="#000000" style="" class=""/><path d="m33 44v4 4h2c0 .552.448 1 1 1s1-.448 1-1v-5h-2v-2h6v2h-2v5c0 1.654-1.346 3-3 3s-3-1.346-3-3v4c0 .552.448 1 1 1h8c.552 0 1-.448 1-1v-12c0-.552-.448-1-1-1h-8c-.552 0-1 .448-1 1z" fill="#ffffff" data-original="#000000" style="" class=""/><path d="m51 39.045v.955c0 1.654-1.346 3-3 3h-3.184c.112.314.184.648.184 1v12c0 1.654-1.346 3-3 3h-8c-.352 0-.686-.072-1-.184v1.184c0 .352-.072.686-.184 1h17.184c6.065 0 11-4.935 11-11 0-5.729-4.401-10.448-10-10.955zm5 15.955c0 .552-.448 1-1 1h-6c-.552 0-1-.448-1-1v-6c0-.552.448-1 1-1h6c.552 0 1 .448 1 1z" fill="#ffffff" data-original="#000000" style="" class=""/><path d="m30.519 39c.232.283.463.568.723.828l.758.758.758-.758c.26-.26.491-.545.723-.828z" fill="#ffffff" data-original="#000000" style="" class=""/><path d="m13 40v-.955c-5.599.507-10 5.226-10 10.955 0 6.065 4.935 11 11 11h5.184c-.112-.314-.184-.648-.184-1v-12c0-1.654 1.346-3 3-3h8c.352 0 .686.072 1 .184v-1.184c0-.352.072-.686.184-1h-15.184c-1.654 0-3-1.346-3-3zm3 15c0 .552-.448 1-1 1h-6c-.552 0-1-.448-1-1v-6c0-.552.448-1 1-1h6c.552 0 1 .448 1 1z" fill="#ffffff" data-original="#000000" style="" class=""/><path d="m30 47h-8c-.552 0-1 .448-1 1v12c0 .552.448 1 1 1h8c.552 0 1-.448 1-1v-4-8c0-.552-.448-1-1-1zm-2.697 9c-.103 0-.204-.015-.303-.037v2.037c0 .553-.447 1-1 1s-1-.447-1-1v-2.037c-.099.022-.2.037-.302.037h-.001c-.937 0-1.697-.95-1.697-2.121 0-.563.179-1.102.497-1.5l1.479-1.848c.271-.34.64-.531 1.024-.531s.753.191 1.024.53l1.479 1.848c.318.398.497.937.497 1.5 0 1.172-.76 2.122-1.697 2.122z" fill="#ffffff" data-original="#000000" style="" class=""/></g></g></svg>
