<?xml version="1.0"?>
<svg xmlns="http://www.w3.org/2000/svg" xmlns:xlink="http://www.w3.org/1999/xlink" xmlns:svgjs="http://svgjs.com/svgjs" version="1.1" width="512" height="512" x="0" y="0" viewBox="0 0 64 64" style="enable-background:new 0 0 512 512" xml:space="preserve" class=""><g><g xmlns="http://www.w3.org/2000/svg"><path d="m39 16.789v-2.487c0-1.821-1.481-3.302-3.302-3.302-.355 0-.707.057-1.045.169l-2.653.885-2.654-.885c-.337-.112-.689-.169-1.044-.169-.005 0-.01 0-.014 0-.879 0-1.701.339-2.321.957-.623.621-.967 1.447-.967 2.327v2.505c0 2.928 1.454 5.645 3.891 7.27 1.848 1.231 4.371 1.231 6.219 0 2.436-1.625 3.89-4.342 3.89-7.27zm-12-.789c0-.552.448-1 1-1s1 .448 1 1-.448 1-1 1-1-.448-1-1zm8.789 4.658c-.722 1.445-2.174 2.342-3.789 2.342s-3.067-.897-3.789-2.342l-.105-.21 1.789-.895.105.211c.381.762 1.147 1.236 2 1.236s1.619-.474 2-1.236l.105-.211 1.789.895zm.211-3.658c-.552 0-1-.448-1-1s.448-1 1-1 1 .448 1 1-.448 1-1 1z" fill="#ffffff" data-original="#000000" style="" class=""/><path d="m25.889 47h12.231c-2.131-1.266-4.176-2.675-6.115-4.218-1.937 1.543-3.978 2.95-6.116 4.218z" fill="#ffffff" data-original="#000000" style="" class=""/><path d="m23.885 31.7 1.726 2.071c.13.157.265.309.397.464l3.529-1.569-3.43-1.524c-.429.183-.875.333-1.347.411z" fill="#ffffff" data-original="#000000" style="" class=""/><path d="m24.101 35.083c-.009-.011-.018-.021-.027-.032l-2.709-3.25-.718-.359c-.578-.289-1.225-.442-1.872-.442-1.403 0-2.705.697-3.483 1.864l-.949 1.425-.79-.395c-1.17-.585-2.481-.894-3.789-.894h-2.764v-16h2c1.103 0 2-.897 2-2v-.618l.895-.447c.681-.341 1.105-1.027 1.105-1.789v-.146c0-.551-.448-1-1-1h-3c-3.309 0-6 2.691-6 6v17c0 2.757 2.243 5 5 5h11.134c.303-1.194 1.13-2.212 2.287-2.726z" fill="#ffffff" data-original="#000000" style="" class=""/><path d="m36.328 36.079c-.836-.786-1.328-1.887-1.328-3.079 0-.205.036-.402.064-.6l-12.83 5.702c-.75.333-1.234 1.078-1.234 1.898v1.395c0 1.859.472 3.666 1.366 5.28 5.235-2.732 9.923-6.29 13.962-10.596z" fill="#ffffff" data-original="#000000" style="" class=""/><path d="m40 43.333 1.146-1.529c.551-.733.854-1.643.854-2.56 0-.659-.156-1.319-.451-1.908l-.168-.336h-2.763l-.167.334c-.295.59-.451 1.25-.451 1.91 0 .917.303 1.827.854 2.561z" fill="#ffffff" data-original="#000000" style="" class=""/><path d="m36.002 39.264c-.785.763-1.589 1.503-2.416 2.214 1.667 1.304 3.411 2.507 5.224 3.601l-1.556-2.074c-.805-1.073-1.248-2.401-1.252-3.741z" fill="#ffffff" data-original="#000000" style="" class=""/><path d="m32 27c-.79 0-1.566-.129-2.307-.365l-.035.177c-.232 1.159-.807 2.191-1.604 3.006l3.946 1.754 4.263-1.895-.123-.124c-.736-.734-1.14-1.711-1.14-2.75 0-.151.014-.299.031-.447-.953.416-1.978.644-3.031.644z" fill="#ffffff" data-original="#000000" style="" class=""/><path d="m39.103 23h2.483l.856-.856c.36-.36.559-.839.559-1.348 0-.411-.141-.791-.372-1.109-.939 1.309-2.129 2.437-3.526 3.313z" fill="#ffffff" data-original="#000000" style="" class=""/><path d="m41.764 31h-3.527c-.763.381-1.237 1.147-1.237 2s.474 1.619 1.236 2h3.527c.763-.381 1.237-1.147 1.237-2s-.474-1.619-1.236-2z" fill="#ffffff" data-original="#000000" style="" class=""/><path d="m41.94 25.088-.176-.088h-3.527l-.177.088c-.654.327-1.06.984-1.06 1.715 0 .498.202.985.554 1.337l.86.86h3.172l.861-.86c.351-.352.553-.84.553-1.337 0-.731-.406-1.388-1.06-1.715z" fill="#ffffff" data-original="#000000" style="" class=""/><path d="m36 3h-8c-3.859 0-7 3.14-7 7v2.384c0 2.37.807 4.636 2.217 6.459-.13-.671-.217-1.355-.217-2.054v-2.505c0-1.416.553-2.746 1.556-3.744.997-.994 2.32-1.54 3.727-1.54h.022c.566 0 1.131.091 1.672.272l1.023.341v-2.613h2v2.612l1.021-.341c.542-.18 1.107-.271 1.677-.271 2.924 0 5.302 2.378 5.302 5.302v2.487c0 .699-.087 1.383-.217 2.054 1.41-1.823 2.217-4.089 2.217-6.459v-2.384c0-3.86-3.141-7-7-7z" fill="#ffffff" data-original="#000000" style="" class=""/><path d="m55 11h-3c-.552 0-1 .449-1 1v.146c0 .762.424 1.448 1.105 1.789l.895.447v.618c0 1.103.897 2 2 2h2v16h-2.764c-1.309 0-2.619.309-3.789.895l-.79.395-.949-1.426c-.778-1.167-2.08-1.864-3.483-1.864-.237 0-.472.027-.706.068.302.587.481 1.24.481 1.932 0 1.354-.637 2.588-1.693 3.379l.031.062c.396.792.613 1.672.648 2.559h12.014c2.757 0 5-2.243 5-5v-17c0-3.309-2.691-6-6-6z" fill="#ffffff" data-original="#000000" style="" class=""/><path d="m39 53.841c0-.685.129-1.355.384-1.993l1.154-2.848h-17.061l1.139 2.848c.255.638.384 1.308.384 1.993 0 .933-.244 1.853-.707 2.662l-2.57 4.497h20.555l-2.57-4.498c-.464-.808-.708-1.729-.708-2.661zm-1.395 3.967c-.766.768-1.791 1.192-2.879 1.192-.629 0-1.259-.149-1.822-.43l-.904-.452-.903.452c-1.539.768-3.491.452-4.704-.764l-.098-.097 1.41-1.418.1.099c.621.622 1.614.784 2.397.391l1.798-.899 1.798.899c.783.392 1.777.229 2.396-.389l.102-.101 1.41 1.418zm0-4c-.766.768-1.791 1.192-2.879 1.192-.629 0-1.259-.149-1.822-.43l-.904-.452-.903.452c-1.539.768-3.491.451-4.704-.764l-.098-.097 1.41-1.418.1.099c.621.622 1.614.784 2.397.391l1.798-.899 1.798.899c.783.392 1.777.229 2.396-.389l.102-.101 1.41 1.418z" fill="#ffffff" data-original="#000000" style="" class=""/><path d="m40.466 46.045c.387.215.777.422 1.169.626.675-1.219 1.104-2.549 1.275-3.927-.058.085-.102.179-.164.261z" fill="#ffffff" data-original="#000000" style="" class=""/></g></g></svg>
