<?xml version="1.0"?>
<svg xmlns="http://www.w3.org/2000/svg" xmlns:xlink="http://www.w3.org/1999/xlink" xmlns:svgjs="http://svgjs.com/svgjs" version="1.1" width="512" height="512" x="0" y="0" viewBox="0 0 64 64" style="enable-background:new 0 0 512 512" xml:space="preserve" class=""><g><g xmlns="http://www.w3.org/2000/svg"><path d="m28.075 45.737c-4.13 1.585-7.075 5.582-7.075 10.263v3c0 1.103.897 2 2 2h3c.551 0 1-.449 1-1v-3h-4v-2h2v-4c0-1.103.897-2 2-2h2c.366 0 .705.106 1 .278.295-.172.634-.278 1-.278h1c-1.953 0-3.578-1.409-3.925-3.263z" fill="#ffffff" data-original="#000000" style="" class=""/><path d="m37 51h-2v4h1 1z" fill="#ffffff" data-original="#000000" style="" class=""/><path d="m35.925 45.737c-.347 1.854-1.972 3.263-3.925 3.263h1c.366 0 .705.106 1 .278.295-.172.634-.278 1-.278h2c1.103 0 2 .897 2 2v4h2v2h-4v3c0 .551.449 1 1 1h3c1.103 0 2-.897 2-2v-3c0-4.681-2.945-8.678-7.075-10.263z" fill="#ffffff" data-original="#000000" style="" class=""/><path d="m33 58v1h2v-2h-1c-.551 0-1 .449-1 1z" fill="#ffffff" data-original="#000000" style="" class=""/><path d="m30 57h-1v2h2v-1c0-.551-.449-1-1-1z" fill="#ffffff" data-original="#000000" style="" class=""/><path d="m33.981 45.188c-.644-.118-1.304-.188-1.981-.188s-1.337.07-1.981.188c.097 1.014.942 1.812 1.981 1.812s1.884-.798 1.981-1.812z" fill="#ffffff" data-original="#000000" style="" class=""/><path d="m33 51h-2v4.184c.374.133.711.335 1 .596.289-.26.626-.463 1-.596z" fill="#ffffff" data-original="#000000" style="" class=""/><path d="m38 13h-9c-2.818 0-5.509 1.346-7.2 3.6l-.229.306-.375.075c-2.431.486-4.196 2.639-4.196 5.118v1.703c0 .667.125 1.319.374 1.938l.212.53c.441-.167.914-.27 1.414-.27h.048c.232-1.719 1.54-3.112 3.294-3.404l2.786-.464c.373-1.233 1.519-2.132 2.872-2.132h1v2h-1c-.551 0-1 .449-1 1s.449 1 1 1h4.021c1.096 0 2.158-.321 3.07-.93 1.05-.7 2.272-1.07 3.535-1.07 2.675 0 4.966 1.659 5.91 4h.464c.441 0 .858.089 1.256.222.482-1.121.744-2.331.744-3.555v-.667c0-4.962-4.038-9-9-9z" fill="#ffffff" data-original="#000000" style="" class=""/><path d="m38.627 24c-.867 0-1.705.254-2.426.734-1.242.829-2.687 1.266-4.18 1.266h-4.021c-1.25 0-2.324-.768-2.774-1.857l-2.555.426c-.968.161-1.671.991-1.671 1.973v7.458c0 4.962 4.038 9 9 9h4c4.962 0 9-4.038 9-9v-5.627c0-2.411-1.962-4.373-4.373-4.373zm-13.627 7v-1h-2v-2h8v2h-2v1c0 1.105-.895 2-2 2s-2-.895-2-2zm12.496 7.059c-1.227 1.841-3.282 2.941-5.496 2.941s-4.269-1.1-5.496-2.941l-.336-.504 1.664-1.109.336.504c.856 1.283 2.289 2.05 3.832 2.05s2.976-.767 3.832-2.051l.336-.504 1.664 1.109zm3.504-8.059h-2v1c0 1.105-.895 2-2 2s-2-.895-2-2v-1h-2v-2h8z" fill="#ffffff" data-original="#000000" style="" class=""/><path d="m29 51h-2v4h1 1z" fill="#ffffff" data-original="#000000" style="" class=""/><path d="m17 30c0 1.103.897 2 2 2v-4c-1.103 0-2 .897-2 2z" fill="#ffffff" data-original="#000000" style="" class=""/><path d="m45 28h-.019c.007.124.019.247.019.373v3.627c1.103 0 2-.897 2-2s-.897-2-2-2z" fill="#ffffff" data-original="#000000" style="" class=""/><path d="m55.108 12.59 4.806-4.119c.69-.592 1.086-1.452 1.086-2.361 0-1.715-1.395-3.11-3.11-3.11h-.188c-.831 0-1.611.323-2.199.911l-1.503 1.503-1.503-1.503c-.588-.588-1.369-.911-2.199-.911h-.188c-1.715 0-3.11 1.395-3.11 3.11 0 .909.396 1.769 1.086 2.361l4.806 4.119c.617.529 1.599.529 2.216 0z" fill="#ffffff" data-original="#000000" style="" class=""/><path d="m15.808 7.438-4.7-4.028c-.617-.529-1.6-.529-2.217 0l-4.699 4.028c-.627.537-1.035 1.22-1.149 1.924-.152.933.096 1.836.696 2.542.594.697 1.457 1.096 2.371 1.096h.188c.43 0 .863-.098 1.287-.292l1.84-.84-1.171 5.132h3.492l-1.171-5.131 1.84.84c.424.193.857.291 1.287.291h.188c.914 0 1.777-.399 2.37-1.096.601-.706.848-1.609.696-2.542-.114-.704-.521-1.387-1.148-1.924z" fill="#ffffff" data-original="#000000" style="" class=""/><path d="m4.25 53 4.75 6.333 4.75-6.333-4.75-6.333z" fill="#ffffff" data-original="#000000" style="" class=""/><path d="m58.739 51.106-.778-.199.042-.977c-.003-1.584-1.349-2.93-3.003-2.93s-3 1.346-3 3c.006-.008.012.046.013.105l.025.802-.778.199c-1.33.34-2.26 1.53-2.26 2.894 0 1.654 1.346 3 3 3 .223 0 .461-.035.749-.109l1.615-.42-1.094 4.529h3.46l-1.094-4.529 1.615.42c.288.074.526.109.749.109 1.654 0 3-1.346 3-3 0-1.364-.93-2.554-2.261-2.894z" fill="#ffffff" data-original="#000000" style="" class=""/></g></g></svg>
