<?xml version="1.0"?>
<svg xmlns="http://www.w3.org/2000/svg" xmlns:xlink="http://www.w3.org/1999/xlink" xmlns:svgjs="http://svgjs.com/svgjs" version="1.1" width="512" height="512" x="0" y="0" viewBox="0 0 64 64" style="enable-background:new 0 0 512 512" xml:space="preserve" class=""><g><g xmlns="http://www.w3.org/2000/svg"><path d="m58.001 45-.001-2h-2-14v2h14z" fill="#ffffff" data-original="#000000" style="" class=""/><path d="m58 35h-2-14v2h14 2.001z" fill="#ffffff" data-original="#000000" style="" class=""/><path d="m56.447 6.139c-2.036-1.748-4.614-2.871-7.447-3.088v2c2.283.207 4.366 1.111 6.034 2.501z" fill="#ffffff" data-original="#000000" style="" class=""/><path d="m39.552 23.034c-1.391-1.667-2.294-3.751-2.501-6.034h-2c.217 2.833 1.341 5.411 3.088 7.447z" fill="#ffffff" data-original="#000000" style="" class=""/><path d="m39.552 8.966-1.414-1.414c-1.747 2.036-2.871 4.615-3.088 7.447h2c.208-2.282 1.111-4.365 2.502-6.033z" fill="#ffffff" data-original="#000000" style="" class=""/><path d="m39 16c0 4.963 4.038 9 9 9s9-4.037 9-9-4.038-9-9-9-9 4.037-9 9zm10 1h-2c-1.654 0-3-1.346-3-3s1.346-3 3-3v-2h2v2c1.654 0 3 1.346 3 3h-2c0-.552-.449-1-1-1h-2c-.551 0-1 .448-1 1s.449 1 1 1h2c1.654 0 3 1.346 3 3s-1.346 3-3 3v2h-2v-2c-1.654 0-3-1.346-3-3h2c0 .552.449 1 1 1h2c.551 0 1-.448 1-1s-.449-1-1-1z" fill="#ffffff" data-original="#000000" style="" class=""/><path d="m47 5.051v-2c-2.833.217-5.411 1.341-7.447 3.088l1.414 1.414c1.667-1.392 3.75-2.295 6.033-2.502z" fill="#ffffff" data-original="#000000" style="" class=""/><path d="m58.949 17c-.207 2.283-1.111 4.366-2.501 6.034l1.414 1.414c1.747-2.036 2.871-4.615 3.088-7.447h-2.001z" fill="#ffffff" data-original="#000000" style="" class=""/><path d="m56 47.466v-.466h-14-2v1h4c.883 0 1.67.391 2.22 1h6.905z" fill="#ffffff" data-original="#000000" style="" class=""/><path d="m60.949 15c-.217-2.833-1.341-5.411-3.088-7.447l-1.414 1.414c1.391 1.667 2.294 3.751 2.501 6.034h2.001z" fill="#ffffff" data-original="#000000" style="" class=""/><path d="m40 41h2 14.001l-.001-2h-14-2z" fill="#ffffff" data-original="#000000" style="" class=""/><path d="m55.034 24.448c-1.667 1.391-3.751 2.294-6.034 2.501v2c2.833-.217 5.411-1.341 7.447-3.088z" fill="#ffffff" data-original="#000000" style="" class=""/><path d="m40 33h2 14.001l-.001-2h-16z" fill="#ffffff" data-original="#000000" style="" class=""/><path d="m39.553 25.861c2.036 1.747 4.615 2.871 7.447 3.088v-2c-2.283-.207-4.366-1.111-6.034-2.501z" fill="#ffffff" data-original="#000000" style="" class=""/><path d="m20.261 41.713-1.987 3.975-.965-.966.586 5.278h5.105c.352 0 .686.072 1 .184v-1.184c0-2.997-1.479-5.65-3.739-7.287z" fill="#ffffff" data-original="#000000" style="" class=""/><path d="m23 52h-20v8h20c.551 0 1-.448 1-1v-5-1c0-.552-.449-1-1-1z" fill="#ffffff" data-original="#000000" style="" class=""/><path d="m3 29c0 1.317.859 2.427 2.042 2.829-.025-.274-.042-.549-.042-.829v-4.816c-1.161.415-2 1.514-2 2.816z" fill="#ffffff" data-original="#000000" style="" class=""/><path d="m5 24.101v-2.101h1c1.896 0 3.54-1.284 4-3.122l.405-1.634 1.219.975c3.049 2.438 6.877 3.781 10.779 3.781h2.597v2.101c.521.106 1.001.312 1.45.567.359-1.016.55-2.092.55-3.168 0-5.238-4.262-9.5-9.5-9.5h-5c-5.238 0-9.5 4.262-9.5 9.5 0 1.077.191 2.152.55 3.169.449-.255.929-.462 1.45-.568z" fill="#ffffff" data-original="#000000" style="" class=""/><path d="m27 29c0-1.302-.839-2.402-2-2.816v4.816c0 .28-.017.555-.042.829 1.184-.402 2.042-1.512 2.042-2.829z" fill="#ffffff" data-original="#000000" style="" class=""/><path d="m23 31v-7h-.597c-3.894 0-7.721-1.198-10.919-3.396-.871 1.755-2.538 2.995-4.484 3.315v7.081c0 3.859 3.141 7 7 7h2c3.86 0 7-3.141 7-7zm-13-3h-2c0-1.654 1.346-3 3-3s3 1.346 3 3h-2c0-.552-.449-1-1-1s-1 .448-1 1zm5 7c-2.209 0-4-1.791-4-4h8c0 2.209-1.791 4-4 4zm4-8c-.551 0-1 .448-1 1h-2c0-1.654 1.346-3 3-3s3 1.346 3 3h-2c0-.552-.448-1-1-1z" fill="#ffffff" data-original="#000000" style="" class=""/><path d="m59.6 48c-.229 0-.457.057-.659.164l-12.706 6.777c-1.298.693-2.763 1.059-4.235 1.059h-5-3v-2h3 5c1.654 0 3-1.346 3-3 0-.552-.449-1-1-1h-10.419c-.941 0-1.871.151-2.765.448-.893.298-1.728.735-2.481 1.3l-2.335 1.752v.5 5c0 .106-.021.207-.031.31l2.972 1.189c.831.332 1.706.501 2.6.501h9.646c1.656 0 3.279-.456 4.693-1.32l14.45-8.831c.413-.253.67-.71.67-1.194v-.255c0-.772-.628-1.4-1.4-1.4z" fill="#ffffff" data-original="#000000" style="" class=""/><path d="m9.739 41.713c-2.26 1.637-3.739 4.29-3.739 7.287v1h6.105l.586-5.277-.965.966z" fill="#ffffff" data-original="#000000" style="" class=""/><path d="m18.522 40.719c-.955-.408-1.997-.644-3.086-.697l2.29 2.289z" fill="#ffffff" data-original="#000000" style="" class=""/><path d="m11.478 40.719.796 1.592 2.29-2.289c-1.09.053-2.131.289-3.086.697z" fill="#ffffff" data-original="#000000" style="" class=""/><path d="m15.045 42.459-.045-.045-.045.045-.838 7.541h1.766z" fill="#ffffff" data-original="#000000" style="" class=""/></g></g></svg>
